<svg width="18" height="24" viewBox="0 0 18 24" fill="none" xmlns="http://www.w3.org/2000/svg">
<path d="M12.68 3.96C13.16 4.67 13.4401 5.52 13.4401 6.44C13.4301 8.84 11.54 10.79 9.16005 10.87C9.06005 10.86 8.94005 10.86 8.83005 10.87C6.62005 10.8 4.83005 9.11 4.59005 6.95C4.30005 4.38 6.41005 2 8.99005 2M3.99005 14.56C1.57005 16.18 1.57005 18.82 3.99005 20.43C6.74005 22.27 11.25 22.27 14 20.43C16.42 18.81 16.42 16.17 14 14.56C11.27 12.73 6.76005 12.73 3.99005 14.56Z" stroke="#8E6CEF" stroke-width="2.5" stroke-linecap="round" stroke-linejoin="round"/>
</svg>
